<?xml version="1.0" encoding="utf-8"?>
<!-- Generator: Adobe Illustrator 24.2.1, SVG Export Plug-In . SVG Version: 6.00 Build 0)  -->
<svg version="1.1" id="Layer_1" xmlns="http://www.w3.org/2000/svg" xmlns:xlink="http://www.w3.org/1999/xlink" x="0px" y="0px" viewBox="0 0 48 48" style="enable-background:new 0 0 48 48;" xml:space="preserve">
	<style type="text/css">
	.st1{fill:none;stroke:#231F20;stroke-miterlimit:10;}
</style>
	<g id="layer1" transform="translate(0,-288.53332)">
		<path id="path4597" fill='#DE4655' d="M22.1,309.1c0-1.2-1.9-2.8-1.9-2.8s-1.9,1.6-1.9,2.8c0,1.2,0.8,2.1,1.9,2.1
		S22.1,310.3,22.1,309.1z" />
	</g>
	<circle class="st1" cx="20.1" cy="19.8" r="9.2" />
	<circle class="st1" cx="20.1" cy="20" r="6.5" />
	<g>
		<path class="st1" d="M28,24.5l7.4,7.4c0.8,0.8,0.8,2.1,0,2.8L35,35.1c-0.8,0.8-2,0.8-2.8,0l-7.4-7.4" />
	</g>
	<line class="st1" x1="31.9" y1="34.4" x2="34.6" y2="31.7" />
	<line class="st1" x1="30.1" y1="32.7" x2="32.9" y2="30" />
</svg>
